<svg xmlns="http://www.w3.org/2000/svg" viewBox="0 0 360 180"><path d="M112,161 112,161 111,162 109,163 108,162 108,162 106,162 105,162 105,162 107,161 108,161 108,161 108,160 109,159 110,159 110,159 112,161Z M0,175 1,174 3,174 4,174 6,175 7,174 10,174 13,175 16,175 18,175 22,175 25,175 29,175 31,176 37,175 37,175 33,175 30,174 29,174 26,174 27,172 27,172 25,172 25,171 23,171 26,171 28,171 29,171 33,171 34,170 33,170 30,169 28,169 25,169 24,169 22,168 22,167 23,167 26,167 27,167 29,167 31,167 32,167 34,166 34,166 34,165 35,165 36,166 38,165 41,165 45,164 46,164 48,164 49,164 52,164 55,165 60,164 63,164 64,164 65,164 66,164 68,165 69,164 70,165 71,165 72,165 75,165 77,165 79,165 80,165 79,164 77,164 77,164 76,163 78,163 80,163 82,163 82,164 84,164 88,163 89,163 90,163 91,163 92,163 93,163 94,163 95,163 97,164 99,164 100,163 101,164 102,163 104,164 105,164 107,163 111,163 113,162 113,162 112,160 112,159 113,158 112,157 114,156 115,156 116,155 117,155 118,155 119,154 120,154 121,153 122,153 123,154 122,154 121,154 119,154 117,155 117,156 118,156 116,157 114,158 114,158 115,159 117,159 118,160 118,161 119,162 119,163 119,164 118,164 117,165 116,165 114,166 110,166 109,167 106,167 103,167 103,167 106,168 106,168 105,168 104,168 102,168 102,169 103,170 103,170 105,170 107,170 109,171 112,171 114,171 117,172 120,172 122,173 123,173 126,172 130,172 133,172 135,172 137,172 138,172 139,171 142,171 146,171 150,171 151,170 150,170 150,169 148,169 146,169 144,169 144,169 144,168 145,168 148,168 150,167 151,167 155,166 158,166 160,166 162,165 164,164 165,164 164,164 165,163 167,163 168,162 170,161 171,161 171,162 173,162 173,161 174,161 174,161 176,161 178,161 179,161 180,162 181,161 184,161 187,160 188,160 188,160 190,160 191,161 192,161 192,160 193,160 195,160 195,160 196,160 197,160 199,160 201,160 203,161 204,161 207,160 209,160 210,160 212,160 213,159 214,159 215,159 216,159 217,159 219,160 220,160 220,159 222,159 224,158 227,158 227,158 229,157 230,157 231,157 231,157 233,156 235,156 236,156 237,156 237,157 239,157 240,157 241,158 242,158 244,157 247,158 249,158 250,159 250,160 248,160 248,161 249,161 249,161 248,162 249,162 250,162 251,162 252,161 253,161 254,160 258,159 258,159 259,158 261,158 261,158 263,157 264,157 266,157 267,157 267,157 268,156 269,157 271,157 272,157 275,157 276,157 279,157 280,157 283,156 284,156 286,157 288,157 290,157 292,156 294,156 294,156 296,157 297,157 299,157 301,157 302,157 303,156 305,157 307,157 309,157 311,156 313,156 315,156 315,155 316,156 317,157 317,157 321,157 323,157 325,157 326,157 326,158 327,158 329,158 333,159 334,159 334,159 337,159 339,160 340,160 342,161 343,161 346,161 348,161 351,161 351,162 349,164 348,164 347,164 346,164 346,165 344,165 344,166 343,167 345,168 347,168 347,169 344,169 342,169 341,170 341,170 340,171 341,171 342,172 344,172 347,173 349,173 349,174 352,174 353,174 356,174 358,174 0,175Z M112,144 114,144 115,145 114,145 114,145 113,145 113,145 112,146 111,145 109,145 107,144 105,143 106,143 108,144 109,144 110,143 111,143 111,143 112,144Z M353,131 353,131 354,131 354,132 353,133 353,134 352,134 351,134 351,136 349,137 348,137 348,136 347,136 347,136 347,135 348,134 349,134 351,133 352,132 352,131 353,130 353,131Z M355,126 355,127 355,127 356,127 356,128 357,128 358,128 359,128 358,129 357,129 357,130 356,131 355,132 355,131 355,130 355,130 354,130 354,129 355,129 355,127 354,127 353,125 353,125 353,124 354,125 354,125 355,126Z M230,104 230,105 230,105 230,106 230,105 230,106 229,107 229,108 227,115 225,116 224,115 223,112 223,111 224,110 224,109 224,108 224,107 224,106 226,106 228,105 229,103 229,102 230,104Z M324,104 324,105 325,104 325,105 325,105 326,107 326,108 326,108 326,109 327,109 329,110 330,112 330,112 331,112 331,113 333,115 333,116 333,117 334,118 334,119 333,120 333,122 332,123 332,123 331,124 330,126 330,127 329,128 328,128 327,128 326,129 325,128 325,128 324,128 324,129 321,128 320,127 320,126 319,126 318,126 318,125 318,124 318,125 317,125 317,125 318,124 318,123 317,124 316,124 316,125 315,124 315,124 314,123 314,123 313,122 312,122 311,121 310,122 307,122 306,122 304,123 304,124 302,124 301,124 300,124 298,125 297,125 295,124 295,124 296,123 296,122 295,121 295,119 295,119 294,118 294,117 293,117 294,117 293,116 294,116 294,116 293,114 294,113 294,112 294,112 294,113 295,112 297,111 297,111 301,110 302,108 302,107 303,106 303,107 304,107 304,107 304,106 304,106 304,106 306,104 307,104 308,105 310,105 309,104 311,103 311,102 313,102 313,102 312,101 312,101 314,102 315,102 316,102 317,102 315,105 315,105 317,106 319,107 320,108 321,107 322,105 322,104 322,102 322,101 323,101 323,102 324,103 324,104Z M289,97 291,97 291,96 293,97 293,98 294,98 296,98 295,99 293,98 292,98 289,98 288,98 286,97 286,97 285,97 286,96 287,96 288,96 289,97Z M314,91 314,93 315,93 316,92 317,92 318,92 320,92 321,93 323,93 325,94 326,95 326,95 328,96 328,97 327,97 327,97 328,98 329,99 329,99 329,100 331,100 330,101 330,100 328,100 327,99 326,98 325,98 323,98 323,99 323,99 321,99 320,98 319,98 319,98 318,98 318,98 319,97 318,96 318,95 316,95 315,94 314,94 313,94 313,93 312,93 314,92 312,92 312,92 311,91 311,91 312,91 312,90 314,91 314,91Z M305,89 304,90 304,90 303,90 300,90 300,91 301,91 301,91 303,91 302,92 302,92 302,93 302,94 303,95 303,95 303,96 302,95 303,94 302,95 302,94 301,94 301,93 300,93 300,96 300,96 299,95 300,94 299,93 299,93 299,93 299,92 299,91 300,89 301,89 302,89 304,89 305,88 305,89Z M286,96 285,96 284,95 283,94 281,93 280,91 279,90 279,88 278,88 277,87 276,86 275,85 275,85 277,85 278,86 280,87 281,88 282,88 282,89 283,89 284,90 283,91 284,91 285,92 286,92 286,93 286,94 286,96Z M298,88 299,89 298,89 297,90 298,91 297,91 297,92 296,94 296,94 295,94 294,93 293,93 292,93 292,93 290,93 290,92 290,91 289,90 289,90 289,89 290,88 290,88 291,88 291,87 293,87 294,85 296,84 297,83 297,83 298,84 299,85 299,85 298,85 299,86 298,86 297,87 298,88 298,88Z M306,82 307,83 306,84 306,83 305,83 306,84 305,84 304,84 304,83 304,83 304,82 302,83 302,83 302,82 303,81 304,82 305,81 305,81 305,81 305,80 306,81 306,82Z M301,71 302,72 303,73 302,74 302,74 302,75 302,76 303,76 304,76 304,77 303,77 303,76 303,77 302,76 301,76 301,76 301,75 301,76 300,75 300,74 300,74 300,72 301,71 301,71Z M107,70 108,70 109,70 111,71 112,71 111,72 110,72 109,72 109,72 108,72 107,72 106,72 106,71 107,72 108,71 107,71 107,70 107,70Z M100,67 101,68 102,67 103,69 104,69 106,70 106,70 104,70 102,70 103,70 102,69 101,68 101,68 99,68 98,68 98,67 97,67 96,68 95,68 96,67 98,67 99,67 100,67Z M321,53 321,54 321,54 320,55 319,55 317,55 316,57 315,56 315,55 313,56 312,56 311,56 312,57 311,59 311,59 310,59 310,58 310,57 309,57 310,56 311,56 312,55 313,55 315,54 316,54 317,53 317,53 319,52 320,51 320,49 320,49 321,49 322,50 322,51 321,52 321,53Z M124,39 123,40 124,40 125,40 124,40 125,41 126,40 127,41 126,41 127,41 127,42 127,43 126,43 126,42 126,42 125,43 124,43 125,43 124,42 121,42 121,42 121,42 121,41 122,41 123,39 123,39 125,38 124,39Z M324,39 325,41 323,41 323,42 324,43 324,44 323,43 322,44 322,43 322,42 322,41 322,40 322,39 322,38 322,37 323,36 322,36 323,36 323,37 323,38 324,39Z M177,31 176,32 178,32 178,33 177,34 178,34 179,35 180,36 180,37 182,37 182,38 181,38 181,39 181,39 179,39 178,40 177,39 176,40 175,40 175,40 174,40 176,39 177,39 175,38 175,38 176,38 175,37 175,37 177,37 177,36 176,35 175,35 175,34 175,34 174,35 174,34 174,33 174,32 175,31 177,31Z M95,24 95,25 96,25 98,26 98,26 99,26 100,26 99,27 97,26 97,26 96,26 94,27 94,26 93,26 94,26 94,24 95,24Z M165,24 165,24 166,25 165,26 161,27 157,26 158,26 156,25 158,25 158,25 156,24 156,24 158,24 159,24 161,24 162,24 164,23 165,24Z M0,21 2,22 5,23 5,23 6,24 5,23 8,23 10,24 9,24 7,25 7,26 6,26 5,25 4,25 4,25 3,24 2,25 1,24 1,24 0,24 1,25 0,25 360,25 359,25 357,25 358,26 359,27 359,28 357,27 355,28 354,28 351,30 350,30 349,29 346,30 346,30 345,30 344,30 343,31 342,32 342,32 343,32 343,34 342,34 342,35 342,35 340,36 340,37 339,37 338,38 337,39 336,38 335,35 336,33 337,33 337,32 338,32 340,31 342,30 344,29 344,27 343,28 343,28 340,29 339,28 337,29 334,30 335,31 331,31 331,30 330,30 329,31 325,31 322,31 315,35 317,35 317,36 318,36 319,36 320,36 321,37 321,38 321,39 321,40 320,42 319,43 318,44 315,47 314,47 313,47 312,47 310,48 310,48 310,49 309,50 308,50 307,51 308,51 309,53 309,53 309,54 309,55 307,56 306,56 307,54 306,53 307,53 306,52 305,52 305,51 304,50 303,50 302,51 301,51 302,51 301,50 302,50 302,49 300,50 299,51 298,51 298,51 298,52 299,52 299,53 300,53 301,52 302,53 302,53 303,53 301,53 301,54 300,54 299,55 300,56 301,57 302,58 302,59 301,59 302,60 302,60 302,62 301,62 300,64 299,65 296,67 295,67 294,68 294,67 293,68 292,68 291,69 290,70 290,70 290,69 290,69 289,68 287,69 286,70 286,71 287,73 288,74 289,75 289,77 289,78 287,80 286,80 285,81 285,81 285,80 284,80 283,79 283,78 282,77 281,77 281,77 280,77 280,78 279,80 279,81 280,81 280,83 281,83 282,83 283,84 283,85 283,86 284,87 284,87 284,89 284,89 281,87 281,86 280,85 280,84 280,83 279,82 278,82 279,80 278,79 279,79 278,78 279,77 278,76 278,74 277,73 275,74 274,74 275,73 274,72 274,71 274,70 273,70 272,69 272,68 271,67 270,67 270,68 269,68 269,68 267,69 267,69 266,70 265,71 264,72 262,73 262,73 260,74 260,75 260,77 260,78 260,80 259,80 259,80 259,81 258,81 258,82 257,81 256,79 255,77 254,75 254,74 253,71 253,70 253,69 251,69 250,69 249,68 250,68 248,66 247,66 247,65 246,65 245,65 241,65 237,64 237,63 236,63 235,64 233,63 232,62 232,62 230,60 230,60 229,60 229,60 228,60 228,61 229,62 230,63 230,64 231,65 231,65 231,64 232,64 231,65 232,66 233,66 234,66 236,64 236,65 237,66 239,66 240,68 238,70 238,70 238,70 238,71 237,71 236,72 236,72 235,73 234,73 232,74 232,74 230,75 229,76 228,76 227,76 226,77 225,77 223,77 223,75 223,73 222,72 221,71 220,70 219,69 219,67 218,66 217,66 217,65 216,63 215,62 215,62 215,61 214,62 213,62 212,60 213,61 214,64 215,65 216,66 216,67 217,68 217,69 217,69 217,71 218,72 219,74 221,76 223,78 223,78 223,78 223,79 224,80 227,79 228,79 229,79 231,78 231,79 231,81 229,83 229,85 227,87 223,90 222,91 222,92 220,93 220,94 219,95 219,96 219,96 219,97 219,98 220,100 220,101 220,102 221,104 221,105 220,106 219,107 217,108 216,109 215,110 215,110 216,112 216,114 215,114 213,115 213,116 213,116 212,118 212,119 211,119 210,121 208,123 207,123 206,124 205,124 204,124 203,124 200,125 198,124 198,123 198,122 198,122 198,121 196,119 196,118 195,117 194,114 194,112 193,111 193,109 192,108 192,107 192,104 193,103 194,102 194,101 193,99 193,99 193,97 192,95 191,94 189,92 189,91 189,89 189,89 190,87 189,86 189,86 189,85 187,86 186,86 185,84 184,84 183,84 181,84 178,85 176,85 174,85 172,86 171,85 169,84 169,83 168,83 167,82 167,81 165,80 165,79 164,78 163,78 163,77 163,76 163,76 162,75 163,75 164,74 164,72 164,70 164,70 163,69 163,68 164,67 164,66 165,65 166,64 166,63 167,62 167,62 168,62 170,61 170,60 170,59 171,57 171,57 173,56 174,54 175,54 175,55 176,55 178,55 179,54 180,54 181,53 185,53 185,53 186,53 188,53 190,53 190,53 190,53 191,53 191,54 191,54 191,55 190,56 190,56 191,56 191,57 193,57 194,57 195,58 196,59 198,59 199,60 200,59 200,58 201,57 202,57 203,57 203,58 205,58 205,58 206,58 209,59 210,59 212,59 214,59 214,59 215,57 216,55 216,55 216,54 216,53 215,53 214,54 213,54 212,53 211,53 210,54 210,54 209,53 208,53 207,52 206,52 207,51 206,51 207,50 209,50 209,49 211,49 212,48 214,48 215,48 217,49 218,49 220,49 220,49 222,48 221,47 220,47 219,46 218,45 217,45 217,45 218,44 218,43 219,43 219,43 217,43 217,43 216,43 215,44 215,44 216,45 217,45 216,45 215,45 214,46 213,45 214,45 212,45 214,44 213,44 212,44 212,43 211,43 210,45 209,45 209,46 208,47 208,48 209,49 209,49 208,49 206,50 206,49 205,49 204,49 204,50 203,50 203,50 203,50 203,51 203,51 204,52 204,52 203,52 203,53 203,53 203,54 202,54 202,53 201,52 200,51 200,50 199,50 200,48 199,48 196,46 195,46 195,45 194,45 194,45 194,45 194,44 193,44 192,45 192,45 193,46 194,46 194,47 195,48 196,48 196,48 198,49 198,50 198,50 198,50 197,50 196,50 197,51 196,52 196,52 196,51 195,50 194,49 193,49 192,48 191,47 190,46 189,46 187,47 185,47 183,47 183,48 182,49 181,49 180,50 180,51 180,51 180,52 179,52 179,53 178,53 176,53 175,54 174,54 173,53 173,53 172,53 171,53 171,52 170,51 171,51 171,50 171,49 171,48 171,47 171,47 172,46 173,46 175,46 176,47 178,47 179,46 179,44 178,43 177,42 176,42 175,41 177,41 178,41 178,40 179,41 181,40 182,39 183,39 184,38 185,37 186,36 187,37 188,36 188,36 189,36 189,35 188,34 188,33 189,33 189,33 191,32 190,33 191,34 190,35 190,35 191,36 191,36 193,36 194,36 195,36 198,35 199,35 199,36 200,36 200,35 201,35 201,33 202,33 203,32 203,33 204,33 204,32 203,31 203,31 206,30 208,31 209,30 208,29 206,30 203,30 202,30 201,29 202,28 201,27 202,27 202,26 205,25 205,25 205,24 204,24 202,24 201,25 201,26 198,27 197,29 198,29 199,30 198,31 197,31 196,33 196,34 195,34 194,35 193,35 193,34 192,33 191,31 190,31 188,32 187,32 186,31 185,30 185,28 186,27 189,27 191,26 195,22 199,20 201,20 203,20 205,19 206,19 208,19 211,20 210,20 211,20 212,20 214,21 217,21 220,22 221,23 221,23 220,24 218,24 214,23 213,23 215,24 215,26 217,26 217,26 217,25 217,25 220,25 220,25 220,25 222,24 223,24 224,24 225,23 224,23 224,22 223,21 226,22 227,22 226,22 226,23 226,23 228,23 228,22 234,21 234,21 233,22 235,22 235,22 237,22 239,21 240,22 241,21 240,20 241,20 244,20 245,21 249,22 249,21 248,21 247,21 247,20 247,19 249,18 249,17 250,17 253,17 253,18 252,19 252,19 253,20 253,21 254,22 253,22 251,24 252,24 253,23 254,23 254,23 255,22 254,22 255,21 254,21 254,20 254,19 253,19 255,18 255,17 255,17 256,18 255,19 256,19 256,18 258,18 260,18 261,18 261,17 261,16 262,16 265,16 267,16 266,16 267,15 268,15 270,14 273,14 273,14 276,14 277,14 279,14 281,14 281,13 282,13 284,12 286,13 285,13 287,13 287,14 288,13 291,13 293,14 294,14 294,15 290,16 289,16 292,16 293,16 294,17 294,16 296,16 299,16 299,17 303,17 303,16 305,16 307,16 309,17 309,18 308,18 310,19 311,19 312,18 314,19 316,18 317,19 318,18 320,19 319,18 320,17 330,18 330,18 333,19 337,19 339,19 340,20 340,20 341,21 342,20 344,20 346,21 348,20 350,21 351,21 350,20 350,20 354,20 356,20 359,21 0,21Z M89,21 89,22 91,21 92,21 92,22 93,23 94,22 94,21 94,20 97,20 99,21 99,21 98,22 99,22 99,23 97,24 95,24 94,23 94,24 93,25 92,26 90,26 89,26 89,27 88,27 87,28 86,29 85,30 85,31 87,31 88,33 89,33 91,33 93,34 94,34 95,35 98,35 98,36 98,37 99,38 100,39 101,38 101,37 101,36 100,35 102,35 103,34 103,33 103,33 103,32 101,31 103,30 102,29 102,28 103,27 105,28 106,28 108,28 109,29 110,29 110,30 111,31 112,31 112,32 114,31 115,30 115,30 119,33 118,34 120,34 120,35 122,35 123,35 123,36 124,36 124,37 124,38 123,39 121,39 120,40 118,40 116,40 114,40 113,40 111,41 109,43 110,43 111,42 113,41 115,41 116,41 115,42 116,44 117,44 118,44 119,43 120,44 120,44 119,45 117,45 116,46 115,46 114,46 114,46 116,45 113,45 113,45 112,46 110,46 109,47 110,48 110,48 107,49 106,49 108,49 108,49 106,49 106,50 105,51 104,51 105,52 104,53 104,52 103,51 104,53 104,53 104,54 104,55 103,55 102,56 101,56 101,57 100,57 99,59 99,59 99,61 100,63 100,65 99,65 98,64 97,62 97,61 96,60 96,60 95,60 94,60 92,60 92,60 90,60 91,61 89,61 88,60 88,60 87,60 85,61 84,61 83,62 83,63 83,64 82,66 82,68 83,69 83,70 84,71 85,71 86,72 89,71 89,71 90,69 91,69 93,68 93,69 93,70 93,71 92,72 92,71 92,73 91,74 94,74 94,74 96,74 97,75 96,77 97,78 96,79 97,80 98,81 99,81 100,81 100,80 102,81 103,81 103,81 104,81 105,79 106,79 107,79 108,78 109,78 109,78 108,79 108,80 108,80 108,81 109,81 109,80 109,79 110,79 110,78 110,79 111,79 112,79 114,79 114,80 115,80 116,79 118,79 117,80 118,80 118,80 119,81 119,81 120,81 121,82 122,83 123,84 124,84 125,84 127,85 129,86 129,88 130,88 130,89 129,90 130,90 131,90 131,91 132,91 135,92 136,92 135,93 137,92 139,93 140,93 141,94 143,95 144,95 145,95 145,97 145,99 143,101 142,102 141,104 141,106 141,108 140,108 140,110 139,111 139,112 138,112 138,113 137,113 135,113 135,114 134,114 132,115 132,116 132,117 131,119 130,119 129,121 128,122 127,123 126,124 125,125 124,125 123,124 122,124 122,124 122,124 123,125 123,126 123,126 123,127 122,128 121,129 119,129 118,129 118,129 118,130 118,131 117,131 116,131 115,131 115,131 115,132 116,132 116,132 117,133 116,133 115,133 114,135 113,135 113,136 112,136 113,137 114,137 114,138 113,139 112,140 111,140 111,141 111,142 112,142 111,142 109,143 109,144 107,144 105,142 105,142 105,141 105,140 104,139 105,138 106,137 104,137 105,136 106,134 107,134 107,132 107,132 106,133 106,133 106,130 107,129 106,128 106,127 107,127 108,124 109,122 108,121 109,120 109,119 109,118 109,116 110,111 110,110 110,108 109,108 109,107 107,106 105,105 104,105 104,104 104,104 103,102 102,100 101,98 100,97 99,96 99,96 99,95 99,94 100,93 100,93 100,92 100,93 99,92 99,92 99,91 99,91 100,90 100,89 101,89 102,87 102,87 103,86 103,86 103,85 102,84 103,83 102,82 102,82 101,81 100,82 100,82 99,83 99,82 98,82 97,82 96,81 96,81 95,80 95,80 94,80 94,79 92,77 92,77 92,77 90,76 89,76 89,76 88,75 87,74 85,74 83,74 82,74 81,73 79,73 78,72 77,72 76,71 75,71 74,70 75,69 74,67 73,66 72,65 72,65 71,64 71,64 70,63 69,62 69,62 68,61 67,59 67,59 65,58 65,59 65,60 67,62 67,62 68,63 69,64 69,65 69,66 70,66 71,67 70,67 70,67 68,65 68,64 67,63 66,63 65,62 65,62 66,61 64,60 63,58 63,57 61,56 60,56 59,55 58,54 57,52 56,51 56,50 56,50 56,48 55,47 56,46 56,44 56,43 55,42 55,42 57,42 57,43 58,43 57,42 57,41 54,40 53,39 52,38 52,38 51,37 51,36 49,36 49,35 48,35 48,34 46,33 46,32 43,32 42,31 40,30 37,30 36,30 34,30 33,29 32,29 32,30 30,30 28,31 28,30 29,29 30,29 29,29 28,29 27,30 26,31 27,31 26,32 24,33 23,33 22,34 22,34 20,34 20,34 17,35 15,36 15,35 17,35 18,34 19,34 20,34 22,32 22,32 23,31 21,32 20,31 20,31 20,31 19,31 18,31 18,30 17,30 16,30 15,29 15,29 14,29 14,28 15,27 17,27 18,26 18,27 19,26 18,26 19,25 18,25 17,26 16,25 15,26 14,25 13,25 12,24 13,24 16,23 16,23 16,24 18,24 18,23 16,23 15,22 13,22 14,21 16,21 17,21 17,20 18,20 21,19 22,19 23,19 25,19 26,19 26,19 28,19 28,19 29,20 30,19 32,20 35,20 36,20 38,20 41,21 42,21 43,21 44,21 46,20 47,20 49,20 50,20 51,20 52,20 52,20 53,20 54,21 56,20 56,21 57,20 57,20 59,20 60,21 64,21 65,21 66,22 65,22 67,22 69,22 70,22 71,23 72,22 71,22 72,21 74,21 76,22 77,22 79,22 80,22 82,22 81,22 82,21 84,22 84,23 85,22 85,22 86,21 85,20 84,20 84,19 85,18 86,18 87,19 88,20 88,20 89,21Z M66,17 65,17 68,17 69,18 70,17 71,17 72,18 72,18 72,17 72,17 75,17 76,19 79,20 79,20 77,20 78,21 78,21 74,21 73,21 71,21 67,21 66,21 65,21 64,21 63,20 65,20 66,20 68,20 66,19 62,19 62,19 64,19 62,19 61,18 62,17 65,17 66,17Z M93,17 94,17 95,17 98,16 99,17 99,18 101,18 102,17 104,18 106,18 106,19 108,18 109,19 111,19 112,20 113,21 111,21 114,22 115,22 117,23 118,23 118,24 116,25 115,25 113,24 112,24 112,24 113,25 115,26 115,27 115,27 114,27 111,26 114,28 114,28 111,28 109,27 108,27 108,26 105,25 105,26 102,26 101,25 102,25 106,25 106,24 106,24 107,23 107,22 105,21 103,21 104,21 103,20 102,20 101,20 101,20 99,20 95,20 91,20 90,19 92,19 90,19 90,18 91,17 92,16 94,16 93,17Z M72,14 72,14 74,14 74,15 74,15 70,15 68,16 66,16 66,15 68,15 64,15 62,15 64,14 65,14 67,14 69,14 71,15 70,14 70,13 71,13 72,14Z M238,19 237,19 234,19 233,19 232,19 231,18 232,18 232,17 234,16 234,16 236,15 236,15 238,14 241,14 245,14 246,13 248,13 249,13 248,14 242,15 238,16 235,18 236,18 238,19Z M85,13 86,13 88,13 89,14 89,14 91,14 94,15 95,14 97,14 99,14 100,15 100,15 100,15 98,16 97,15 94,16 92,16 88,15 87,14 86,14 84,14 83,13 83,13 85,13Z M198,10 202,11 199,11 198,12 198,12 197,13 196,13 194,13 195,12 193,12 191,11 190,10 193,10 194,10 195,10 196,10 197,10 198,10Z M93,10 94,11 93,11 91,12 89,12 87,12 86,11 86,11 87,11 85,11 84,10 83,10 85,9 86,9 85,9 88,9 89,9 92,10 93,10Z M112,7 116,7 118,7 118,8 116,8 113,8 112,8 115,8 112,9 111,9 109,10 107,10 106,11 103,11 104,11 104,11 105,11 104,12 102,12 102,12 100,13 100,13 102,13 102,13 99,14 97,14 94,14 91,14 90,13 92,13 92,12 92,12 95,12 94,12 92,12 93,11 95,11 95,11 93,10 93,10 96,10 97,10 98,10 96,9 92,9 91,9 90,9 89,8 88,8 90,8 93,8 95,7 96,7 97,8 98,7 101,7 104,7 104,7 107,7 112,7Z M153,6 159,7 157,8 148,8 149,8 152,8 155,8 157,8 158,8 157,9 159,8 164,8 167,8 168,9 164,9 163,10 160,10 162,10 160,11 160,12 162,13 160,13 158,13 160,14 160,15 159,15 161,16 158,16 160,16 159,17 156,17 158,17 158,18 156,17 155,18 157,18 158,19 158,19 156,20 154,19 155,19 154,20 158,20 155,21 152,22 149,22 148,22 147,22 146,23 144,24 140,25 139,25 139,26 139,27 137,27 138,28 137,30 135,30 134,29 132,29 131,29 130,28 128,26 128,26 128,25 126,24 127,23 126,23 127,22 129,21 129,20 127,21 125,20 125,20 126,19 127,19 129,19 126,18 125,19 124,18 125,17 125,17 123,15 121,15 121,14 119,14 117,14 111,14 109,13 111,13 113,13 109,12 107,12 107,12 114,11 115,10 112,10 113,9 116,9 118,9 117,8 120,8 123,8 126,8 127,8 130,8 132,8 133,8 135,8 133,8 133,7 137,7 140,7 141,6 145,6 153,6Z" fill="currentColor"/></svg>