<svg width="573" height="644" viewBox="0 0 573 644" fill="none" xmlns="http://www.w3.org/2000/svg">
<path d="M283.383 485.55C283.443 487.267 283.503 488.984 283.099 491.125C281.081 492.058 279.327 492.264 278.011 493.134C274.436 495.496 271.964 495.048 269.98 491.082C269.423 489.97 267.907 488.971 266.644 488.643C261.164 487.222 255.432 492.09 254.841 498.455C236.5 500.723 218.174 503.119 199.815 505.224C177.973 507.729 156.102 509.987 134.241 512.336C133.43 512.424 132.601 512.347 131.103 512.347C132.51 507.452 133.852 502.778 135.197 498.106C137.82 488.991 140.539 479.902 143.04 470.753C144.851 464.128 142.802 458.898 137.42 454.43C94.2299 418.566 51.1434 382.577 8.03716 346.613C5.52612 344.518 3.12013 342.297 0 339.548C7.84109 334.986 14.9476 330.754 22.1467 326.685C33.2117 320.432 34.3935 317.747 30.7306 305.335C22.2984 276.764 13.8006 248.212 5.33714 219.651C4.86955 218.073 4.47159 216.474 3.84894 214.175C11.8586 215.12 19.4191 215.954 26.9636 216.914C46.2925 219.372 65.6119 221.904 84.94 224.369C93.7295 225.49 97.6031 223.034 100.133 214.524C103.121 204.471 105.921 194.362 108.819 184.282C109.172 183.057 109.625 181.861 109.727 181.556C115.123 186.48 120.839 191.319 126.125 196.588C144.06 214.466 161.843 232.498 179.688 250.467C180.392 251.176 181.136 251.845 181.853 252.542C184.874 255.481 188.32 256.815 192.243 254.593C196.096 252.412 196.92 248.747 196.217 244.66C194.239 233.177 192.263 221.694 190.182 210.23C182.84 169.774 175.451 129.326 168.103 88.8708C167.814 87.282 167.759 85.6508 167.524 83.3377C178.507 88.9193 188.859 94.1919 199.223 99.4423C203.529 101.624 207.799 103.891 212.192 105.885C220.216 109.527 225.445 107.839 229.627 100.039C243.478 74.21 257.212 48.3188 271.44 22.5265C275.707 27.5833 279.522 32.0656 283.34 37.0474C283.4 38.7656 283.265 41.4113 282.84 43.5474C275.157 42.6303 275.36 42.2021 275.825 49.3981C275.878 50.2246 275.893 51.0613 275.832 51.8862C275.308 58.8732 274.482 65.8526 274.332 72.8467C274.247 76.8583 275.29 80.8886 275.747 84.9193C275.982 86.9911 275.849 89.1179 276.22 91.1583C277.599 98.731 279.453 106.233 280.489 113.848C281.473 121.086 281.644 128.433 282.243 135.727C282.267 136.03 283.009 136.275 283.417 136.547C283.493 146.241 283.569 155.935 283.206 166.233C282.998 170.74 283.23 174.643 283.462 178.546C283.52 179.618 283.579 180.69 283.227 182.274C283.033 184.706 283.249 186.627 283.466 188.547C283.521 200.241 283.576 211.936 283.2 224.228C282.988 227.733 283.207 230.639 283.425 233.546C283.486 234.941 283.546 236.335 283.165 238.292C282.961 243.418 283.199 247.982 283.436 252.546C283.494 279.241 283.552 305.936 283.2 333.212C283.001 335.71 283.212 337.628 283.422 339.546C283.475 343.246 283.527 346.946 283.172 351.223C282.971 353.715 283.18 355.631 283.388 357.546C283.452 358.301 283.516 359.056 283.182 360.294C282.99 362.367 283.195 363.957 283.401 365.546C283.465 370.575 283.53 375.605 283.153 381.246C282.543 391.152 282.364 400.446 282.257 409.74C282.254 410.004 283.018 410.277 283.424 410.546C283.489 418.907 283.553 427.268 283.189 436.228C281.468 441.259 279.845 445.557 278.101 449.798C276.731 453.129 277.557 458.287 276.129 462.54C275.941 463.101 277.473 464.072 277.611 464.947C277.916 466.889 278.598 469.295 277.794 470.799C274.078 477.751 275.894 482.988 283.383 485.55Z" fill="#2A6270"/>
<path d="M283.381 542.559C283.477 563.955 283.595 585.352 283.657 606.749C283.686 616.703 283.607 626.658 283.161 636.947C280.625 632.494 275.234 632.349 271.735 629.519C272.533 613.405 273.271 597.288 274.147 581.179C274.871 567.885 275.757 554.6 277.059 540.971C279.492 541.274 281.436 541.916 283.381 542.559Z" fill="#2C616C"/>
<path d="M283.51 136.087C283.009 136.275 282.268 136.03 282.243 135.727C281.644 128.433 281.473 121.086 280.489 113.848C279.453 106.233 277.599 98.7311 276.22 91.1583C275.849 89.1179 275.982 86.9911 275.747 84.9193C275.29 80.8886 274.247 76.8583 274.332 72.8468C274.482 65.8526 275.308 58.8732 275.832 51.8862C275.893 51.0614 275.878 50.2246 275.825 49.3981C275.36 42.2021 275.355 42.2024 282.925 43.5359C283.413 55.8077 283.601 68.081 283.633 80.3545C283.681 98.7783 283.619 117.202 283.51 136.087Z" fill="#2C616C"/>
<path d="M255.282 498.51C255.432 492.09 261.164 487.222 266.644 488.643C267.907 488.971 269.423 489.97 269.98 491.082C271.964 495.048 274.436 495.496 278.011 493.134C279.327 492.264 281.081 492.058 282.999 491.544C283.441 500.232 283.519 508.926 283.155 518.082C281.146 518.878 279.58 519.212 278.013 519.545C278.082 516.738 278.115 513.929 278.225 511.123C278.581 502.027 273.664 497.096 264.617 497.633C261.645 497.809 258.687 498.247 255.282 498.51Z" fill="#2C616C"/>
<path d="M495.133 301.84C427.625 367.851 360.371 433.614 292.18 500.292C292.034 497.464 291.89 495.927 291.885 494.389C291.855 482.896 291.711 471.399 291.966 459.912C292.014 457.735 293.126 455.033 294.673 453.516C342.818 406.272 391.046 359.112 439.334 312.013C470.452 281.661 501.683 251.424 532.877 221.15C533.819 220.236 534.839 218.915 535.963 218.752C547.434 217.091 558.934 215.631 571.739 213.942C568.556 222.54 568.702 230.674 562.127 236.925C539.676 258.267 517.603 280.006 495.133 301.84Z" fill="#565656"/>
<path d="M560.791 249.501C558.911 256.533 557.178 263.608 555.118 270.587C551.49 282.88 547.79 295.156 543.817 307.34C542.989 309.878 541.193 312.343 539.256 314.241C494.163 358.438 449.006 402.569 403.821 446.671C386.06 464.007 368.269 481.316 350.284 498.418C348.411 500.199 345.034 501.498 342.497 501.29C330.793 500.327 319.14 498.751 306.817 497.32C308.428 495.6 309.593 494.259 310.859 493.02C378.15 427.203 445.431 361.374 512.764 295.599C528.492 280.233 544.398 265.049 560.525 249.661C560.828 249.541 560.791 249.501 560.791 249.501Z" fill="#565656"/>
<path d="M297.544 395.285C357.446 336.732 417.09 278.428 477.04 219.825C482.034 225.643 487.931 225.03 494.015 224.111C502.716 222.797 511.455 221.738 520.877 221.548C444.923 295.756 368.968 369.964 292.322 444.848C292.092 442.737 291.854 441.542 291.85 440.346C291.808 429.853 292.108 419.349 291.676 408.873C291.445 403.272 292.467 398.748 297.544 395.285Z" fill="#565656"/>
<path d="M393.736 252.623C418.243 229.085 442.488 205.808 466.732 182.531C466.31 181.9 465.887 181.269 465.464 180.638C465.919 181.759 466.496 182.846 466.809 184.005C468.852 191.552 470.569 199.201 472.949 206.638C474.224 210.621 473.13 213.025 470.32 215.749C440.185 244.947 410.126 274.225 380.109 303.544C352.593 330.421 325.155 357.377 297.677 384.292C296.159 385.779 294.579 387.204 292.363 389.282C292.112 387.187 291.846 385.979 291.842 384.77C291.803 372.781 291.672 360.788 291.923 348.804C291.968 346.633 293.083 343.939 294.626 342.428C322.818 314.815 351.15 287.346 379.455 259.849C381.941 257.434 384.19 254.939 388.382 255.46C389.949 255.655 391.769 253.803 393.736 252.623Z" fill="#565656"/>
<path d="M424.091 437.798C464.179 398.732 504.014 359.915 543.818 321.128C553.433 326.592 562.744 331.883 572.645 337.508C571.086 339.232 569.944 340.571 568.722 341.833C540.382 371.102 508.487 396.322 477.148 422.173C463.917 433.087 450.666 443.979 437.305 454.734C431.928 459.062 431.033 464.501 431.935 470.862C432.166 472.494 431.602 474.844 430.493 475.964C420.649 485.903 410.657 495.697 400.542 505.359C399.297 506.549 397.002 507.408 395.311 507.24C383.081 506.024 370.88 504.506 357.484 502.945C380.022 480.902 401.931 459.475 424.091 437.798Z" fill="#565656"/>
<path d="M291.822 202.547C291.896 194.388 289.89 185.859 292.628 179.315C295.363 172.776 302.796 168.172 308.257 162.81C327.87 143.55 347.52 124.327 367.159 105.093C367.634 104.627 368.066 104.054 368.636 103.758C381.302 97.1898 393.984 90.6537 407.965 83.4396C406.88 89.8356 405.376 94.7953 405.325 99.7698C405.203 111.853 398.552 119.675 390.31 127.556C359.006 157.49 328.191 187.934 297.248 218.244C295.842 219.621 294.975 221.547 293.857 223.218C293.179 222.85 292.5 222.482 291.821 222.114C291.821 215.758 291.821 209.402 291.822 202.547Z" fill="#565656"/>
<path d="M395.642 155.383C394.288 163.188 393.147 170.595 391.604 177.917C391.119 180.218 390.043 182.79 388.408 184.392C357.367 214.829 326.203 245.14 295.054 275.466C294.366 276.136 293.555 276.679 291.812 278.072C291.812 273.608 291.811 270.061 291.812 266.514C291.816 256.852 291.696 247.187 291.932 237.531C291.978 235.631 292.912 233.268 294.255 231.954C328.657 198.285 363.167 164.726 397.666 131.156C398.111 130.722 398.657 130.392 400.223 129.205C398.586 138.525 397.143 146.738 395.642 155.383Z" fill="#565656"/>
<path d="M329.091 297.797C316.935 309.633 305.034 321.222 292.489 333.439C292.165 331.411 291.854 330.362 291.851 329.311C291.818 317.148 291.733 304.982 291.936 292.822C291.968 290.916 292.87 288.523 294.209 287.215C324.594 257.522 355.096 227.948 385.586 198.362C386.035 197.926 386.606 197.616 387.97 196.638C386.033 207.243 384.231 216.953 382.496 226.674C381.298 233.387 380.353 240.15 378.949 246.818C378.543 248.745 377.269 250.753 375.838 252.161C360.404 267.356 344.859 282.438 329.091 297.797Z" fill="#565656"/>
<path d="M344.678 116.384C327.285 133.294 310.145 149.957 291.864 167.73C291.864 157.427 292.627 148.606 291.678 139.974C290.383 128.188 293.988 119.715 303.281 112.043C314.538 102.749 324.421 91.7904 335.099 81.3553C342.388 89.6406 343.505 101.548 353.344 107.589C350.489 110.491 347.71 113.314 344.678 116.384Z" fill="#565656"/>
<path d="M291.849 95.543C291.858 87.2277 291.806 79.4102 291.931 71.5956C291.956 70.044 292.159 67.9949 293.13 67.0385C300.565 59.715 308.211 52.6052 316.333 44.9153C321.264 54.298 325.931 63.049 330.411 71.8943C330.868 72.7978 330.674 74.739 329.999 75.4032C317.718 87.4937 305.317 99.4621 291.849 112.515C291.849 106.126 291.849 101.084 291.849 95.543Z" fill="#565656"/>
<path d="M307.749 42.3706C302.692 47.2165 297.896 51.813 292.442 57.0397C292.192 55.0063 291.922 53.8137 291.917 52.62C291.867 40.9568 292.02 29.2898 291.76 17.6319C291.668 13.4943 293.268 11.0763 297.426 9.35303C302.115 18.3338 306.977 27.1986 311.231 36.346C311.777 37.5182 309.162 40.1602 307.749 42.3706Z" fill="#565656"/>
<path d="M437.746 488.68C440.112 496.668 442.389 504.273 444.892 512.634C432.802 511.372 421.469 510.19 409.953 508.988C418.461 500.219 426.661 491.769 435.412 482.749C436.345 485.054 437.001 486.676 437.746 488.68Z" fill="#565656"/>
<path d="M294.365 608.224C293.385 608.161 292.052 607.855 292.048 607.535C291.909 594.386 291.45 581.21 292.184 568.103C292.355 565.062 296.651 562.253 299.048 559.337C299.475 559.566 299.902 559.796 300.33 560.025C300.77 566.272 301.262 572.516 301.632 578.766C301.839 582.254 301.267 585.891 302.057 589.221C303.996 597.392 301.327 603.396 294.365 608.224Z" fill="#565656"/>
<path d="M291.874 631.572C289.782 621.363 295.71 616.292 303.427 611.267C303.934 622.15 304.409 632.339 304.901 642.921C300.441 642.921 296.541 642.921 291.876 642.921C291.876 639.245 291.876 635.652 291.874 631.572Z" fill="#565656"/>
<path d="M297.713 508.58C298.284 519.391 298.466 529.869 299.59 540.245C300.289 546.698 298.38 551.12 292.555 554.406C292.352 553.511 291.999 552.669 291.995 551.824C291.941 539.375 292.094 526.922 291.824 514.478C291.734 510.31 294.65 508.835 297.04 506.688C297.267 507.193 297.494 507.699 297.713 508.58Z" fill="#565656"/>
<path d="M283.482 485.091C275.894 482.988 274.078 477.751 277.794 470.799C278.598 469.295 277.916 466.889 277.611 464.947C277.473 464.072 275.941 463.101 276.129 462.54C277.557 458.287 276.731 453.129 278.101 449.798C279.844 445.557 281.468 441.259 283.096 436.688C283.482 452.577 283.532 468.604 283.482 485.091Z" fill="#2C616C"/>
<path d="M283.446 37.0887C279.525 32.5651 275.707 27.5834 271.686 22.2673C273.316 18.2355 275.147 14.5381 277.557 10.7662C279.142 11.199 280.148 11.7063 281.155 12.2135C281.59 11.8997 282.026 11.5859 282.461 11.272C281.626 9.37225 280.791 7.47247 279.956 5.57266C280.762 3.71512 281.567 1.85756 282.373 0C282.765 0.102661 283.157 0.205321 283.549 0.307983C283.549 12.4155 283.549 24.523 283.446 37.0887Z" fill="#2C616C"/>
<path d="M277.913 519.972C279.58 519.212 281.146 518.878 283.06 518.54C283.464 526.237 283.521 533.938 283.48 542.099C281.436 541.916 279.492 541.274 277.2 540.591C277.173 533.833 277.493 527.116 277.913 519.972Z" fill="#2A6270"/>
<path d="M271.576 629.962C275.234 632.349 280.625 632.494 283.058 637.403C283.394 639.02 283.417 640.515 283.236 642.378C283.032 642.747 283.147 642.668 283.147 642.668C279.144 642.902 275.14 643.135 270.635 643.398C270.928 638.538 271.173 634.472 271.576 629.962Z" fill="#2A6270"/>
<path d="M283.517 410.086C283.018 410.277 282.254 410.004 282.257 409.74C282.364 400.446 282.543 391.152 283.059 381.704C283.473 390.908 283.541 400.267 283.517 410.086Z" fill="#2C616C"/>
<path d="M283.527 252.09C283.198 247.982 282.961 243.418 283.07 238.702C283.483 242.911 283.551 247.272 283.527 252.09Z" fill="#2C616C"/>
<path d="M283.553 178.094C283.23 174.643 282.998 170.74 283.115 166.694C283.524 170.247 283.585 173.944 283.553 178.094Z" fill="#2C616C"/>
<path d="M279.718 5.81433C280.791 7.47241 281.626 9.37219 282.461 11.272C282.026 11.5858 281.59 11.8996 281.155 12.2135C280.148 11.7062 279.142 11.1989 277.8 10.537C278.137 8.94019 278.808 7.49811 279.718 5.81433Z" fill="#2A6270"/>
<path d="M283.52 233.104C283.207 230.639 282.988 227.733 283.108 224.688C283.503 227.255 283.559 229.959 283.52 233.104Z" fill="#2C616C"/>
<path d="M283.482 357.126C283.18 355.631 282.971 353.715 283.075 351.675C283.45 353.268 283.513 354.987 283.482 357.126Z" fill="#2C616C"/>
<path d="M283.517 339.125C283.212 337.628 283.001 335.71 283.106 333.671C283.485 335.268 283.548 336.986 283.517 339.125Z" fill="#2C616C"/>
<path d="M283.554 188.125C283.249 186.627 283.033 184.706 283.135 182.668C283.517 184.268 283.58 185.985 283.554 188.125Z" fill="#2C616C"/>
<path d="M283.495 365.137C283.195 363.957 282.99 362.367 283.088 360.663C283.457 361.942 283.523 363.335 283.495 365.137Z" fill="#2C616C"/>
<path d="M560.845 249.562C561.016 249.468 561.17 249.353 561.325 249.238C561.259 249.339 561.193 249.44 560.959 249.521C560.791 249.501 560.828 249.54 560.845 249.562Z" fill="#B68A55"/>
<path d="M283.091 642.663C283.148 642.668 283.032 642.747 283 642.762C282.967 642.777 283.035 642.659 283.091 642.663Z" fill="#2C616C"/>
</svg>
